<?xml version="1.0" encoding="utf-8"?>
<!-- Generator: Adobe Illustrator 24.0.1, SVG Export Plug-In . SVG Version: 6.00 Build 0)  -->
<svg version="1.1" id="Capa_1" xmlns="http://www.w3.org/2000/svg" xmlns:xlink="http://www.w3.org/1999/xlink" x="0px" y="0px"
	 viewBox="0 0 372.92 37.14" style="enable-background:new 0 0 372.92 37.14;" xml:space="preserve">
<title>LOGOTIPO KUBO 2020</title>
<rect y="0.5" style="fill:#328D36;" width="34.9" height="36.11"/>
<path style="fill:#FFFFFF;" d="M75,27.33V11h8.3v14.94c0,2.83,1.06,4.21,3.42,4.21s4.12-1.53,4.12-4.73V11h8.28v25h-8.28v-3.83
	c-1.3,2.58-3.66,4.45-7.68,4.45c-4.67,0-8.14-3-8.14-9.29"/>
<path style="fill:#FFFFFF;" d="M111.42,32.16V36h-8.28V0h8.28v14.74c1.51-2.75,4.41-4.44,7.54-4.4c5.64,0,10.22,4.4,10.22,13v0.38
	c0,8.62-4.58,12.93-10.27,12.93c-3.17,0.17-6.13-1.59-7.49-4.46 M120.76,23.72v-0.38c0-4.4-1.85-6.51-4.76-6.51
	s-4.81,2.25-4.81,6.46v0.38c0,4.26,1.8,6.42,4.81,6.42S120.76,27.84,120.76,23.72"/>
<path style="fill:#FFFFFF;" d="M131.45,23.84v-0.39c0-8,5.78-13.11,13.27-13.11s13.18,4.93,13.18,12.87v0.39
	c0,8.13-5.78,13-13.23,13s-13.22-4.69-13.22-12.78 M149.45,23.67v-0.38c0-4.21-1.62-6.56-4.77-6.56s-4.81,2.25-4.81,6.46v0.39
	c0,4.3,1.62,6.65,4.81,6.65S149.45,27.84,149.45,23.67"/>
<polygon style="fill:#FFFFFF;" points="48.93,0 48.93,36.04 57.21,36.04 57.21,25.08 63.73,36.04 72.98,36.04 64.42,22.26 
	72.33,11.01 63.73,11.01 57.21,20.92 57.21,0 "/>
<rect x="161.53" y="29.87" style="fill:#D8DA00;" width="6.52" height="6.75"/>
<path style="fill:#FFFFFF;" d="M182.4,0.27c-4.94,0-7.55,2.4-7.55,6.94v3.27h-4.3v3.81h4.3v22.33h4.22V14.29h5.42v-3.81h-5.42V7.16
	c0-2.16,1.1-3.12,3.57-3.12c0.5,0,1.23,0,1.57,0.09l0.56,0.07V0.42h-0.44C183.91,0.32,183.05,0.27,182.4,0.27z"/>
<rect x="187.7" y="1.13" style="fill:#FFFFFF;" width="4.41" height="4.53"/>
<rect x="187.79" y="10.48" style="fill:#FFFFFF;" width="4.22" height="26.14"/>
<path style="fill:#FFFFFF;" d="M210.9,10c-3.34,0.09-6.52,1.44-8.9,3.78v-3.3h-4.22v26.14H202V17.91c2.91-2.83,5.41-4.09,8.09-4.09
	c3.05,0,4.41,1.46,4.41,4.74v18.06h4.22V17.94C218.73,12.9,215.88,10,210.9,10z"/>
<path style="fill:#FFFFFF;" d="M243.35,29.92v-11.4c0-5.57-2.91-8.52-8.4-8.52c-4.35-0.04-8.52,1.7-11.55,4.81l-0.34,0.33l2.36,2.8
	l0.38-0.34c2.13-1.89,4.85-3.83,8.87-3.83c3,0,4.5,1.52,4.5,4.65v0.86c-11.53,1.86-16.67,5.25-16.67,11c0,4.19,2.85,6.8,7.46,6.8
	c3.4,0.01,6.69-1.22,9.25-3.45c0.08,0.91,0.27,1.8,0.54,2.67l0.11,0.35h4.43l-0.28-0.69C243.54,34.75,243.35,33,243.35,29.92z
	 M239.17,22.64v7c-2.24,2.3-5.3,3.62-8.51,3.67c-1.49,0-4-0.46-4-3.51C226.67,27.52,228.11,24.63,239.17,22.64L239.17,22.64z"/>
<path style="fill:#FFFFFF;" d="M261.72,10c-3.33,0.09-6.51,1.44-8.89,3.78v-3.3h-4.22v26.14h4.22V17.91
	c2.91-2.83,5.41-4.09,8.1-4.09c3,0,4.4,1.46,4.4,4.74v18.06h4.22V17.94C269.55,12.9,266.7,10,261.72,10z"/>
<path style="fill:#FFFFFF;" d="M291.3,28.27c-1.71,3.69-3.5,5.06-6.6,5.06c-4.29,0-7.06-3.85-7.06-9.81c0-7.15,3.69-9.7,7.15-9.7
	c3,0,4.92,1.49,6.31,5l0.2,0.48l3.7-1.67l-0.19-0.45c-2-4.83-5.26-7.18-9.89-7.18c-5.71,0-11.48,4.2-11.48,13.57
	s5.78,13.57,11.15,13.57c4.7,0,8-2.32,10.26-7.3l0.22-0.46l-3.53-1.55L291.3,28.27z"/>
<rect x="298.87" y="1.13" style="fill:#FFFFFF;" width="4.41" height="4.53"/>
<rect x="298.96" y="10.48" style="fill:#FFFFFF;" width="4.22" height="26.14"/>
<path style="fill:#FFFFFF;" d="M318.85,10c-5.44,0-11.29,4.23-11.29,13.52s5.67,13.62,11.29,13.62c4.47,0,7.84-2,10.28-6l0.23-0.38
	l-2.79-2.25l-0.3,0.48c-2,3.13-4,4.34-7.24,4.34c-4.16,0-7-3.46-7.24-8.68h17.6v-1.08C329.39,15.2,325.35,10,318.85,10z
	 M318.8,13.77c5,0,6.15,4.74,6.41,7.3h-13.32C312.66,15.7,315.93,13.77,318.8,13.77L318.8,13.77z"/>
<path style="fill:#FFFFFF;" d="M337.75,14.47v-4h-4.22v26.15h4.22V19.87c1.87-3.78,4.92-5.86,8.61-5.86h0.95h0.48l0.43-4.08h-1.11
	C343.43,9.81,339.94,11.51,337.75,14.47z"/>
<path style="fill:#FFFFFF;" d="M361.31,10c-6.87,0-11.67,5.58-11.67,13.57s4.8,13.57,11.67,13.57s11.61-5.58,11.61-13.57
	S368.15,10,361.31,10z M361.31,33.33c-5.49,0-7.44-5.28-7.44-9.81c0-5.89,2.92-9.7,7.44-9.7c5.1,0,7.39,4.87,7.39,9.7
	C368.7,29.48,365.8,33.33,361.31,33.33z"/>
</svg>
